<svg width="21" height="20" viewBox="0 0 21 20" fill="none" xmlns="http://www.w3.org/2000/svg">
<path d="M1.5 5V2C1.5 1.73478 1.60536 1.48043 1.79289 1.29289C1.98043 1.10536 2.23478 1 2.5 1H18.5C18.7652 1 19.0196 1.10536 19.2071 1.29289C19.3946 1.48043 19.5 1.73478 19.5 2V5M1.5 5L8.15 10.7C8.25977 10.7939 8.34789 10.9104 8.40831 11.0416C8.46873 11.1728 8.50001 11.3156 8.5 11.46V17.72C8.50004 17.8719 8.53469 18.0218 8.60131 18.1583C8.66792 18.2948 8.76477 18.4143 8.88448 18.5078C9.00419 18.6013 9.14363 18.6663 9.29222 18.6979C9.4408 18.7295 9.59462 18.7268 9.742 18.69L11.742 18.19C11.9584 18.136 12.1506 18.0112 12.288 17.8355C12.4253 17.6597 12.4999 17.4431 12.5 17.22V11.46C12.5 11.3156 12.5313 11.1728 12.5917 11.0416C12.6521 10.9104 12.7402 10.7939 12.85 10.7L19.5 5M1.5 5H19.5" stroke="#1F1F1F" stroke-width="1.5" stroke-linecap="round" stroke-linejoin="round"/>
</svg>
