<svg width="47" height="38" viewBox="0 0 47 38" fill="none" xmlns="http://www.w3.org/2000/svg">
<path d="M37.7327 32.1882H11.7714L2.72383 37.7362C2.43735 37.9118 2.1135 38 1.78894 38C1.48816 38 1.1872 37.9242 0.91539 37.7722C0.350487 37.456 0.000701904 36.8593 0.000701904 36.2118V8.94118C0.000701904 4.01101 4.01171 0 8.94188 0H37.7327C42.6628 0 46.6738 4.01101 46.6738 8.94118V23.2471C46.6738 28.1772 42.6628 32.1882 37.7327 32.1882ZM43.0974 8.94118C43.0974 5.98308 40.6908 3.57647 37.7327 3.57647H8.94206C5.98396 3.57647 3.57735 5.98308 3.57735 8.94118V33.0176L10.3319 28.8755C10.6133 28.7031 10.9367 28.6118 11.2668 28.6118H37.7327C40.6908 28.6118 43.0974 26.2052 43.0974 23.2471V8.94118Z" fill="#9FB00A"/>
<path d="M34.8719 25.0356H11.6249C10.6374 25.0356 9.83663 24.235 9.83663 23.2474C9.83663 22.2598 10.6374 21.4592 11.6249 21.4592H34.8719C35.8594 21.4592 36.6602 22.2598 36.6602 23.2474C36.6602 24.235 35.8594 25.0356 34.8719 25.0356Z" fill="#9FB00A"/>
<path d="M34.8719 17.8826H11.6249C10.6374 17.8826 9.83663 17.082 9.83663 16.0943C9.83663 15.1067 10.6374 14.3061 11.6249 14.3061H34.8719C35.8594 14.3061 36.6602 15.1067 36.6602 16.0943C36.6602 17.082 35.8594 17.8826 34.8719 17.8826Z" fill="#9FB00A"/>
<path d="M32.1883 10.7295H11.6236C10.6362 10.7295 9.83539 9.92895 9.83539 8.94131C9.83539 7.95367 10.6362 7.15308 11.6236 7.15308H32.1883C33.1758 7.15308 33.9766 7.95367 33.9766 8.94131C33.9766 9.92895 33.1758 10.7295 32.1883 10.7295Z" fill="#9FB00A"/>
</svg>
