<svg width="262" height="180" viewBox="0 0 262 180" fill="none" xmlns="http://www.w3.org/2000/svg">
<path fill-rule="evenodd" clip-rule="evenodd" d="M181.428 51.587L202.826 30.6946L182.68 30.6274L171.325 41.4431L130.457 0.464355L51.0945 80.0303H70.4696L130.444 19.8923L190.425 80.0303H209.8L181.428 51.587ZM13.6305 99.8882H63.0465L130.424 32.2934L197.835 99.8882H247.284L259.149 111.859H190.398L155.742 77.1148L119.088 114.103H99.7131L146.181 67.5217L130.424 51.7214L70.4897 111.819V111.866H1.76562L13.6305 99.8882ZM139.756 111.369H171.425L155.661 95.5619L139.756 111.369Z" fill="#B3B3B3"/>
<path fill-rule="evenodd" clip-rule="evenodd" d="M10.0908 175.205C9.45973 175.765 8.73939 176.214 7.95974 176.535C7.25819 176.797 6.51499 176.928 5.76644 176.923C4.69878 176.989 3.64509 176.653 2.81207 175.981C2.4735 175.679 2.20465 175.307 2.02422 174.891C1.8438 174.474 1.75613 174.023 1.76731 173.57C1.74964 173.024 1.87108 172.483 2.12018 171.997C2.36891 171.541 2.72229 171.152 3.15109 170.86C3.5976 170.572 4.08848 170.359 4.60407 170.23C5.18778 170.094 5.77932 169.994 6.37531 169.932C7.57868 169.821 8.76782 169.589 9.92471 169.239C9.92471 168.969 9.92471 168.795 9.92471 168.726C9.95646 168.417 9.92231 168.104 9.8245 167.809C9.7267 167.514 9.56748 167.243 9.35736 167.015C8.7095 166.516 7.90321 166.27 7.08796 166.322C6.36108 166.268 5.63545 166.442 5.01228 166.821C4.49292 167.272 4.14374 167.889 4.02288 168.567L2.12018 168.297C2.25499 167.566 2.55563 166.876 2.99888 166.28C3.46088 165.727 4.0703 165.316 4.75628 165.095C5.61593 164.804 6.51948 164.663 7.42698 164.68C8.2555 164.653 9.08221 164.773 9.86936 165.033C10.4015 165.203 10.879 165.511 11.2531 165.927C11.5729 166.329 11.787 166.806 11.8758 167.313C11.9557 167.919 11.9881 168.531 11.9727 169.142V171.782C11.9428 172.95 11.9844 174.118 12.0972 175.281C12.18 175.778 12.3436 176.258 12.5816 176.702H10.5059C10.2957 176.237 10.1648 175.741 10.1184 175.233L10.0908 175.205ZM9.93855 170.791C8.8833 171.161 7.79033 171.412 6.67974 171.539C6.08642 171.596 5.50281 171.729 4.94309 171.934C4.6244 172.063 4.35193 172.285 4.16126 172.572C3.9307 172.923 3.83582 173.346 3.89442 173.762C3.95301 174.177 4.16105 174.558 4.47953 174.831C4.98475 175.214 5.61152 175.401 6.24385 175.357C6.96733 175.375 7.68288 175.203 8.31952 174.858C8.8915 174.545 9.35121 174.061 9.63412 173.473C9.87944 172.842 9.98793 172.167 9.95239 171.491V170.798L9.93855 170.791ZM15.0032 164.929H21.7561V166.578H16.9889V176.674H15.0032V164.894V164.929ZM30.7437 172.87L32.8194 173.14C32.5525 174.24 31.9207 175.218 31.0274 175.912C30.0514 176.604 28.8736 176.953 27.6786 176.903C26.9217 176.95 26.1633 176.835 25.4544 176.565C24.7455 176.295 24.1026 175.876 23.5688 175.337C22.5196 174.115 21.9883 172.531 22.0882 170.923C21.9824 169.256 22.5283 167.613 23.6103 166.343C24.1112 165.801 24.723 165.375 25.4037 165.093C26.0844 164.811 26.8179 164.679 27.5541 164.707C28.2691 164.684 28.9807 164.815 29.6408 165.091C30.301 165.367 30.8941 165.782 31.3803 166.308C32.4375 167.561 32.9704 169.175 32.8678 170.812C32.8678 170.923 32.8678 171.103 32.8678 171.338H24.1223C24.1199 172.424 24.5079 173.475 25.2155 174.297C25.528 174.63 25.9069 174.894 26.3277 175.07C26.7485 175.247 27.2017 175.333 27.6579 175.323C28.3257 175.341 28.9806 175.137 29.5191 174.741C30.1029 174.264 30.5297 173.621 30.7437 172.898V172.87ZM24.2399 169.682H30.7645C30.7453 168.882 30.4848 168.107 30.0172 167.458C29.7248 167.089 29.3507 166.793 28.9244 166.593C28.4982 166.394 28.0314 166.296 27.561 166.308C27.1364 166.298 26.714 166.373 26.3193 166.531C25.9246 166.688 25.5656 166.923 25.2639 167.223C24.6335 167.888 24.2755 168.766 24.2607 169.682H24.2399ZM35.3102 164.929H37.3029V169.814H42.838V164.929H44.8237V176.709H42.8172V171.505H37.2821V176.709H35.331V164.929H35.3102ZM46.7472 164.929H56.2399V166.578H52.4899V176.674H50.4972V166.578H46.7472V164.929ZM65.5459 172.371L67.4832 172.648C67.3345 173.853 66.7543 174.964 65.8503 175.773C64.9496 176.537 63.7992 176.942 62.6192 176.91C61.9007 176.94 61.1841 176.815 60.5179 176.544C59.8518 176.272 59.2517 175.861 58.7584 175.337C57.7124 174.079 57.1897 172.466 57.2985 170.833C57.2726 169.692 57.4871 168.559 57.9281 167.507C58.3071 166.602 58.98 165.853 59.8378 165.379C60.6857 164.915 61.6387 164.676 62.6053 164.686C63.741 164.623 64.8628 164.961 65.7742 165.643C66.6169 166.341 67.1694 167.33 67.324 168.414L65.4075 168.705C65.275 168.009 64.9176 167.376 64.3904 166.904C63.9171 166.504 63.314 166.292 62.6953 166.308C62.2318 166.292 61.7708 166.381 61.3459 166.567C60.9209 166.752 60.5428 167.031 60.2391 167.382C59.6163 168.075 59.305 169.232 59.305 170.791C59.305 172.35 59.6025 173.507 60.2045 174.221C60.491 174.567 60.8522 174.843 61.2609 175.03C61.6696 175.216 62.115 175.306 62.5638 175.295C63.2816 175.327 63.9837 175.079 64.5219 174.602C65.1029 174.008 65.4558 173.228 65.5182 172.399L65.5459 172.371ZM68.1404 164.929H77.6332V166.578H73.8831V176.674H71.8905V166.578H68.1404V164.929ZM79.529 164.929H84.1024C84.9491 164.895 85.796 164.991 86.614 165.213C87.1663 165.414 87.6476 165.773 87.9977 166.246C88.3979 166.762 88.6081 167.401 88.5928 168.054C88.604 168.563 88.4849 169.066 88.2468 169.516C87.996 169.955 87.633 170.318 87.1951 170.569C87.7561 170.754 88.2418 171.116 88.5789 171.602C88.945 172.125 89.1342 172.751 89.1186 173.39C89.1204 173.865 89.0142 174.335 88.808 174.764C88.6018 175.192 88.3011 175.568 87.9285 175.863C86.9955 176.464 85.8942 176.748 84.7874 176.674H79.5151V164.894L79.529 164.929ZM81.5147 169.883H83.5904C84.1724 169.908 84.7553 169.863 85.327 169.752C85.6529 169.653 85.9451 169.466 86.1711 169.211C86.3119 169.049 86.417 168.858 86.4797 168.653C86.5424 168.447 86.5613 168.23 86.5352 168.017C86.5092 167.803 86.4386 167.598 86.3283 167.413C86.2179 167.228 86.0701 167.069 85.8944 166.945C85.1856 166.651 84.4182 166.525 83.6527 166.578H81.4801V169.883H81.5147ZM81.5147 175.046H84.1301C84.9212 175.11 85.7159 174.974 86.441 174.651C86.6615 174.497 86.8382 174.288 86.9535 174.045C87.0688 173.802 87.1187 173.533 87.0983 173.265C87.0973 172.886 86.9708 172.518 86.7385 172.218C86.5062 171.909 86.1692 171.695 85.7906 171.616C85.1716 171.508 84.5434 171.464 83.9156 171.484H81.5147V175.08V175.046ZM90.5093 170.798C90.5093 168.629 91.1112 167.029 92.322 165.982C93.3485 165.107 94.6621 164.643 96.0098 164.68C96.7424 164.654 97.4723 164.781 98.1527 165.055C98.833 165.328 99.4488 165.741 99.9605 166.266C100.491 166.857 100.899 167.546 101.161 168.296C101.424 169.045 101.535 169.839 101.49 170.632C101.546 171.857 101.308 173.078 100.798 174.193C100.356 175.046 99.669 175.745 98.8258 176.203C97.9571 176.672 96.9829 176.911 95.996 176.896C95.2594 176.926 94.5246 176.801 93.8393 176.529C93.154 176.257 92.5334 175.843 92.0176 175.316C91.0005 174.263 90.4955 172.752 90.4955 170.77L90.5093 170.798ZM92.5435 170.798C92.4524 172.003 92.8016 173.199 93.5259 174.166C93.8312 174.525 94.2123 174.812 94.6419 175.007C95.0714 175.201 95.5386 175.297 96.0098 175.288C96.4788 175.297 96.9437 175.201 97.3702 175.005C97.7966 174.809 98.1735 174.52 98.473 174.159C99.2029 173.174 99.5519 171.958 99.4554 170.736C99.5431 169.554 99.1907 168.381 98.466 167.444C98.1654 167.086 97.789 166.8 97.3642 166.606C96.9394 166.412 96.4767 166.315 96.0098 166.322C95.5393 166.313 95.0728 166.409 94.6434 166.601C94.214 166.794 93.8325 167.08 93.5259 167.437C92.8026 168.401 92.4535 169.596 92.5435 170.798ZM110.104 164.922H112.131V169.807H117.666V164.922H119.652V176.702H117.666V171.498H112.131V176.702H110.124V164.922H110.104ZM130.577 172.863L132.652 173.133C132.385 174.234 131.754 175.211 130.86 175.905C129.884 176.596 128.706 176.944 127.512 176.896C126.76 176.934 126.009 176.812 125.308 176.538C124.607 176.265 123.971 175.846 123.443 175.309C122.38 174.083 121.84 172.488 121.942 170.867C121.837 169.202 122.38 167.56 123.457 166.287C123.959 165.747 124.571 165.322 125.251 165.04C125.932 164.757 126.665 164.625 127.401 164.652C128.117 164.628 128.83 164.758 129.491 165.034C130.153 165.31 130.747 165.726 131.234 166.252C132.291 167.505 132.824 169.119 132.722 170.756C132.722 170.867 132.722 171.047 132.722 171.283H123.976C123.974 172.369 124.362 173.419 125.069 174.242C125.382 174.575 125.761 174.838 126.181 175.015C126.602 175.192 127.055 175.278 127.512 175.267C128.179 175.286 128.834 175.081 129.373 174.685C129.953 174.204 130.378 173.563 130.597 172.842L130.577 172.863ZM124.066 169.675H130.597C130.575 168.876 130.315 168.101 129.85 167.451C129.557 167.083 129.183 166.787 128.757 166.588C128.331 166.388 127.864 166.29 127.394 166.301C126.969 166.291 126.547 166.366 126.152 166.524C125.758 166.681 125.399 166.916 125.097 167.216C124.459 167.878 124.092 168.756 124.066 169.675ZM136.202 164.922H144.38V175.08H145.646V180.035H144.02V176.709H134.804V180.035H133.178V175.08H134.216C135.6 173.177 136.269 169.805 136.223 164.964L136.202 164.922ZM137.855 166.571C137.726 170.396 137.145 173.232 136.112 175.08H142.415V166.578L137.855 166.571ZM147.833 164.922H152.406C153.25 164.889 154.095 164.984 154.911 165.206C155.462 165.409 155.942 165.768 156.294 166.239C156.693 166.756 156.9 167.394 156.882 168.047C156.894 168.556 156.775 169.059 156.536 169.509C156.286 169.946 155.926 170.309 155.492 170.562C156.051 170.75 156.536 171.112 156.876 171.595C157.242 172.118 157.431 172.744 157.415 173.383C157.417 173.858 157.311 174.328 157.105 174.757C156.898 175.185 156.598 175.561 156.225 175.856C155.295 176.457 154.195 176.741 153.091 176.667H147.819V164.887L147.833 164.922ZM149.818 169.876H151.928C152.508 169.901 153.089 169.857 153.658 169.745C153.987 169.648 154.282 169.461 154.509 169.204C154.752 168.941 154.884 168.593 154.876 168.234C154.898 167.979 154.848 167.723 154.734 167.494C154.619 167.266 154.443 167.073 154.226 166.938C153.519 166.644 152.754 166.519 151.991 166.571H149.839V169.876H149.818ZM149.818 175.039H152.427C153.218 175.104 154.013 174.968 154.738 174.644C154.959 174.491 155.137 174.282 155.252 174.039C155.367 173.796 155.417 173.526 155.395 173.258C155.394 172.879 155.267 172.511 155.035 172.212C154.804 171.9 154.467 171.686 154.087 171.609C153.471 171.501 152.845 171.457 152.219 171.477H149.839V175.08L149.818 175.039ZM159.871 164.929H161.857V173.888L167.392 164.929H169.53V176.709H167.544V167.77L162.009 176.674H159.871V164.894V164.929ZM179.583 164.929V169.994C180.072 170.048 180.564 169.922 180.967 169.641C181.448 168.995 181.824 168.277 182.081 167.514C182.337 166.723 182.756 165.996 183.313 165.379C183.819 165.038 184.427 164.879 185.036 164.929H185.762V166.571H185.222C184.866 166.523 184.504 166.607 184.205 166.807C183.91 167.256 183.677 167.743 183.513 168.255C183.325 168.825 183.049 169.363 182.697 169.849C182.372 170.2 181.976 170.476 181.535 170.659C182.392 170.89 183.23 171.687 184.046 173.05L186.163 176.674H183.977L181.853 173.036C181.574 172.485 181.191 171.993 180.725 171.588C180.385 171.35 179.977 171.228 179.563 171.241V176.674H177.528V171.241C177.124 171.23 176.726 171.349 176.394 171.581C175.922 171.988 175.537 172.485 175.259 173.043L173.121 176.674H170.942L173.114 173.036C173.94 171.65 174.782 170.853 175.64 170.646C175.162 170.453 174.739 170.146 174.408 169.752C173.976 169.026 173.621 168.258 173.349 167.458C173.266 167.157 173.083 166.894 172.831 166.71C172.56 166.601 172.27 166.554 171.98 166.571H171.391V164.922H171.668C172.212 164.897 172.756 164.944 173.287 165.061C173.619 165.165 173.911 165.368 174.124 165.643C174.52 166.222 174.843 166.848 175.086 167.507C175.346 168.251 175.717 168.952 176.186 169.585C176.575 169.87 177.056 170.001 177.535 169.953V164.887L179.583 164.929ZM187.609 164.929H189.595V173.888L195.13 164.929H197.234V176.709H195.248V167.77L189.713 176.674H187.575V164.894L187.609 164.929ZM200.299 164.929H203.357L206.456 174.325L209.916 164.929H212.753V176.709H210.725V167.216L207.266 176.674H205.495L202.229 166.765V176.674H200.285V164.894L200.299 164.929ZM215.015 170.798C215.015 168.629 215.624 167.029 216.828 165.982C217.856 165.109 219.168 164.645 220.516 164.68C221.248 164.653 221.978 164.781 222.659 165.054C223.339 165.327 223.955 165.74 224.466 166.266C224.999 166.855 225.409 167.545 225.673 168.294C225.937 169.044 226.049 169.838 226.002 170.632C226.055 171.857 225.818 173.077 225.31 174.193C224.864 175.045 224.176 175.744 223.332 176.203C222.463 176.673 221.489 176.912 220.502 176.896C219.765 176.926 219.03 176.801 218.345 176.529C217.66 176.257 217.039 175.843 216.523 175.316C215.506 174.263 215.001 172.752 215.001 170.77L215.015 170.798ZM217.049 170.798C216.958 172.003 217.307 173.199 218.032 174.166C218.337 174.525 218.718 174.812 219.148 175.007C219.577 175.201 220.045 175.297 220.516 175.288C220.985 175.296 221.451 175.199 221.879 175.004C222.306 174.808 222.684 174.52 222.986 174.159C223.713 173.173 224.062 171.958 223.968 170.736C224.051 169.554 223.699 168.384 222.979 167.444C222.677 167.086 222.299 166.8 221.873 166.606C221.447 166.412 220.984 166.315 220.516 166.322C220.037 166.309 219.561 166.405 219.124 166.602C218.687 166.799 218.299 167.091 217.99 167.458C217.267 168.422 216.918 169.616 217.008 170.819L217.049 170.798ZM235.979 172.371L237.924 172.648C237.778 173.858 237.198 174.974 236.291 175.787C235.39 176.551 234.24 176.956 233.06 176.923C232.341 176.954 231.625 176.829 230.958 176.558C230.292 176.286 229.692 175.874 229.199 175.35C228.153 174.093 227.63 172.48 227.739 170.847C227.714 169.707 227.926 168.574 228.362 167.52C228.745 166.617 229.42 165.868 230.278 165.393C231.126 164.928 232.079 164.689 233.046 164.7C234.164 164.652 235.264 164.992 236.159 165.663C237.004 166.362 237.558 167.35 237.716 168.435L235.8 168.726C235.672 168.042 235.328 167.417 234.817 166.945C234.344 166.546 233.741 166.334 233.122 166.349C232.661 166.336 232.202 166.425 231.78 166.611C231.357 166.796 230.981 167.074 230.68 167.423C230.057 168.116 229.739 169.274 229.739 170.833C229.739 172.392 230.043 173.549 230.645 174.263C230.931 174.609 231.292 174.886 231.701 175.073C232.11 175.259 232.555 175.349 233.004 175.337C233.722 175.369 234.424 175.12 234.962 174.644C235.541 174.049 235.891 173.268 235.952 172.44L235.979 172.371ZM238.581 164.929H248.074V166.578H244.282V176.674H242.296V166.578H238.546V164.929H238.581ZM249.97 164.929H251.955V173.888L257.49 164.929H259.621V176.709H257.636V167.77L252.101 176.674H249.963L249.97 164.929Z" fill="#B3B3B3"/>
<path fill-rule="evenodd" clip-rule="evenodd" d="M8.24271 142.152H13.4388L10.9134 135.431L8.24271 142.152ZM3.15039 148.527V147.578H4.33352C4.47997 147.583 4.62587 147.557 4.76176 147.503C4.89765 147.448 5.02048 147.365 5.12228 147.259C5.41078 146.921 5.63159 146.531 5.77266 146.109L12.3525 128.959H13.5011L20.6968 147.578H22.3919V148.527H13.1136V147.578H15.4453L13.764 143.095H7.93136L6.6652 146.372C6.62986 146.456 6.60881 146.545 6.60293 146.636C6.59465 146.776 6.59465 146.917 6.60293 147.058C6.6019 147.137 6.62271 147.214 6.66304 147.281C6.70336 147.349 6.76161 147.403 6.83125 147.439C7.02146 147.544 7.23746 147.592 7.45395 147.578H9.16985V148.527H3.15039ZM23.7549 148.527V147.578H25.7268V130.255H23.7549V129.347H33.303V130.227H30.6461V147.55H33.4137C34.7713 147.646 36.1123 147.206 37.1499 146.324C38.0448 145.488 38.7367 144.088 39.2256 142.125H40.1389L39.9244 148.527H23.7549ZM41.578 148.527V147.578H43.5568V130.255H41.578V129.347H51.1261V130.227H48.4762V147.55H51.2438C52.5955 147.629 53.9251 147.18 54.9523 146.296C55.8471 145.46 56.539 144.06 57.028 142.097H57.9413L57.7268 148.5L41.578 148.527ZM58.9653 148.527V147.578H61.3246V130.255H58.9653V129.347H68.6517V130.227H66.2716V147.55H68.631V148.5L58.9653 148.527ZM74.602 142.152H79.7981L77.2658 135.431L74.602 142.152ZM69.5097 148.527V147.578H70.6859C70.8324 147.584 70.9784 147.558 71.1144 147.503C71.2503 147.448 71.3731 147.365 71.4747 147.259C71.7632 146.921 71.984 146.531 72.125 146.109L78.7049 128.959H79.8535L87.0491 147.578H88.7512V148.527H79.466V147.578H81.7977L80.1164 143.095H74.2837L73.0176 146.372C72.9822 146.456 72.9612 146.545 72.9553 146.636C72.9474 146.776 72.9474 146.917 72.9553 147.058C72.9528 147.136 72.9723 147.213 73.0114 147.281C73.0506 147.348 73.1078 147.403 73.1767 147.439C73.3672 147.543 73.583 147.591 73.7994 147.578H75.5153V148.527H69.5097ZM89.6645 148.527V147.578H91.152C91.2947 147.593 91.4389 147.579 91.5758 147.536C91.7127 147.493 91.8393 147.423 91.9477 147.328C92.1303 147.035 92.2084 146.688 92.1691 146.345V131.239C92.1891 131.094 92.1779 130.947 92.1361 130.807C92.0943 130.667 92.023 130.538 91.927 130.428C91.6135 130.26 91.2567 130.19 90.903 130.227H89.7337V129.347H97.4828L105.55 140.392V131.655C105.6 131.251 105.504 130.844 105.28 130.504C104.944 130.275 104.536 130.177 104.132 130.227H102.88V129.347H109.01V130.227H107.889C107.712 130.208 107.534 130.225 107.364 130.276C107.194 130.327 107.036 130.412 106.899 130.525C106.678 130.858 106.581 131.257 106.623 131.655V148.978H105.834L93.3038 131.724V146.532C93.2955 146.675 93.3163 146.818 93.3651 146.952C93.4139 147.087 93.4896 147.21 93.5875 147.315C93.8112 147.508 94.1022 147.605 94.397 147.585H96.106V148.534L89.6645 148.527ZM127.615 142.769V148.527H126.667L125.366 147.46C124.783 147.977 124.1 148.368 123.36 148.61C122.526 148.878 121.654 149.009 120.779 148.998C119.536 149.013 118.305 148.753 117.174 148.236C116.009 147.673 114.971 146.878 114.123 145.901C113.238 144.949 112.535 143.843 112.047 142.637C111.581 141.458 111.346 140.199 111.355 138.93C111.343 137.673 111.578 136.425 112.047 135.258C112.542 134.058 113.244 132.955 114.123 132.001C114.983 131.032 116.03 130.247 117.202 129.694C118.344 129.181 119.583 128.921 120.834 128.931C121.611 128.924 122.384 129.041 123.124 129.278C123.864 129.515 124.564 129.864 125.2 130.31L126.238 129.313H127.207L127.324 134.627H126.293C125.858 133.234 125.088 131.968 124.051 130.941C123.138 130.178 121.975 129.778 120.786 129.818C119.305 129.818 118.309 130.303 117.776 131.274C117.243 132.244 116.987 134.683 116.987 138.584C116.987 140.663 116.987 142.173 117.056 143.192C117.071 143.935 117.154 144.675 117.306 145.402C117.451 146.209 117.865 146.942 118.482 147.481C119.157 147.946 119.968 148.171 120.786 148.118C122.146 148.117 123.451 147.579 124.418 146.622C125.506 145.598 126.234 144.249 126.494 142.776L127.615 142.769ZM130.237 148.527V147.578H132.569V130.255H130.555V129.347H146.517L146.579 134.392H145.604C145.203 133.154 144.526 132.024 143.625 131.086C142.779 130.463 141.74 130.158 140.691 130.227H137.384V138.106H137.654H138.062C138.493 138.138 138.925 138.08 139.332 137.937C139.739 137.794 140.113 137.568 140.429 137.274C141.058 136.517 141.426 135.576 141.48 134.593H142.456V142.769H141.48C141.484 141.735 141.141 140.729 140.505 139.914C140.16 139.601 139.755 139.363 139.315 139.214C138.874 139.065 138.408 139.009 137.945 139.048H137.384V147.543H140.595C141.947 147.624 143.277 147.174 144.303 146.289C145.198 145.453 145.89 144.053 146.379 142.09H147.299L147.091 148.493L130.237 148.527ZM158.556 148.527V147.578H160.881V130.255H158.556V129.347H168.042V130.2H165.745V138.078H172.166V130.227H169.869V129.347H179.327V130.2H177.002V147.522H179.327V148.472H169.869V147.522H172.166V139.201H165.745V147.578H168.042V148.527H158.556ZM187.401 138.951C187.401 141.418 187.443 143.109 187.526 144.037C187.554 144.75 187.701 145.452 187.961 146.116C188.214 146.755 188.675 147.29 189.269 147.633C190.002 147.94 190.789 148.097 191.584 148.097C192.378 148.097 193.165 147.94 193.898 147.633C194.496 147.293 194.96 146.757 195.213 146.116C195.479 145.41 195.633 144.666 195.669 143.912C195.752 142.935 195.801 141.286 195.801 138.965C195.801 136.644 195.752 135.022 195.669 134.038C195.632 133.285 195.477 132.541 195.213 131.835C194.958 131.197 194.494 130.664 193.898 130.324C193.165 130.018 192.378 129.86 191.584 129.86C190.789 129.86 190.002 130.018 189.269 130.324C188.676 130.667 188.216 131.199 187.961 131.835C187.703 132.499 187.555 133.201 187.526 133.914C187.443 134.849 187.401 136.533 187.401 138.979V138.951ZM181.686 138.951C181.683 137.682 181.937 136.426 182.433 135.258C182.951 134.048 183.688 132.943 184.606 132.001C185.528 131.039 186.625 130.26 187.837 129.708C189.024 129.214 190.298 128.959 191.584 128.959C192.869 128.959 194.143 129.214 195.33 129.708C196.545 130.26 197.644 131.038 198.568 132.001C199.493 132.943 200.236 134.047 200.761 135.258C201.261 136.425 201.517 137.681 201.516 138.951C201.522 140.239 201.265 141.515 200.761 142.7C200.241 143.914 199.497 145.019 198.568 145.956C197.662 146.918 196.572 147.688 195.365 148.222C194.168 148.73 192.88 148.984 191.58 148.971C190.289 148.985 189.01 148.73 187.823 148.222C186.614 147.683 185.521 146.914 184.606 145.956C183.683 145.018 182.946 143.913 182.433 142.7C181.938 141.512 181.684 140.238 181.686 138.951ZM206.054 143.337V130.227H203.813V129.347H213.388V130.227H210.884V143.24C210.884 144.862 211.202 146.012 211.825 146.788C212.207 147.183 212.672 147.489 213.187 147.682C213.701 147.875 214.252 147.95 214.8 147.904C215.465 147.912 216.127 147.808 216.758 147.599C217.323 147.41 217.842 147.103 218.28 146.698C218.757 146.264 219.11 145.712 219.304 145.097C219.555 144.017 219.657 142.907 219.609 141.799V131.745C219.662 131.313 219.575 130.875 219.36 130.497C219.2 130.317 218.799 130.227 218.169 130.227H217.222V129.347H223.269V130.227H222.328C221.861 130.175 221.39 130.282 220.992 130.532C220.734 130.891 220.62 131.334 220.674 131.772V141.82C220.705 142.859 220.635 143.898 220.467 144.924C220.353 145.514 220.117 146.073 219.775 146.566C219.18 147.392 218.358 148.025 217.408 148.389C216.202 148.822 214.926 149.027 213.644 148.991C211.161 148.991 209.272 148.506 207.978 147.55C207.337 147.064 206.826 146.427 206.49 145.696C206.153 144.965 206.001 144.162 206.048 143.358L206.054 143.337ZM225.344 148.749V143.122H226.465C226.824 144.539 227.577 145.825 228.638 146.83C229.626 147.672 230.89 148.119 232.187 148.084C233.312 148.125 234.415 147.767 235.301 147.072C235.694 146.772 236.011 146.384 236.226 145.939C236.441 145.493 236.549 145.003 236.539 144.508C236.578 144.029 236.477 143.549 236.247 143.126C236.017 142.704 235.669 142.358 235.245 142.132C234.248 141.61 233.177 141.246 232.07 141.051C231.481 140.919 231.039 140.808 230.727 140.732C229.211 140.436 227.81 139.716 226.687 138.653C225.814 137.635 225.365 136.32 225.434 134.981C225.401 134.177 225.533 133.375 225.821 132.625C226.109 131.874 226.547 131.19 227.109 130.615C227.689 130.055 228.378 129.619 229.132 129.333C229.886 129.047 230.69 128.918 231.495 128.952C232.199 128.946 232.9 129.051 233.571 129.264C234.218 129.474 234.827 129.785 235.377 130.186L236.415 129.347H237.335L237.452 134.419H236.484C236.219 133.121 235.565 131.933 234.609 131.017C233.712 130.224 232.546 129.805 231.35 129.846C230.399 129.806 229.462 130.084 228.686 130.636C228.363 130.861 228.099 131.162 227.917 131.512C227.735 131.862 227.64 132.251 227.641 132.646C227.641 133.851 228.921 134.724 231.481 135.313L232.27 135.486C234.657 136.041 236.339 136.838 237.3 137.856C238.333 139.061 238.855 140.623 238.753 142.208C238.784 143.099 238.636 143.987 238.319 144.82C238.002 145.653 237.521 146.414 236.906 147.058C236.307 147.686 235.583 148.182 234.781 148.514C233.979 148.846 233.117 149.006 232.249 148.985C231.403 148.998 230.56 148.888 229.745 148.659C229.018 148.44 228.336 148.093 227.731 147.633L226.382 148.749H225.344ZM240.926 148.527V147.578H243.251V130.255H241.258V129.347H257.171L257.234 134.392H256.258C255.855 133.153 255.176 132.023 254.272 131.086C253.427 130.46 252.387 130.156 251.339 130.227H248.038V138.106H248.301H248.716C249.147 138.137 249.579 138.079 249.986 137.936C250.393 137.793 250.766 137.568 251.083 137.274C251.709 136.515 252.077 135.576 252.134 134.593H253.103V142.769H252.134C252.135 141.735 251.792 140.731 251.159 139.914C250.814 139.602 250.409 139.364 249.969 139.215C249.528 139.066 249.062 139.009 248.599 139.048H248.038V147.543H251.242C252.594 147.626 253.925 147.176 254.95 146.289C256.014 145.107 256.732 143.654 257.026 142.09H257.939L257.739 148.493L240.926 148.527Z" fill="#B3B3B3"/>
<path d="M260.569 154.57H0.382812V157.016H260.569V154.57Z" fill="#B3B3B3"/>
</svg>
